HIERARCHY
ROOT Hips
{
  OFFSET 5.84602e-005 68.8428 3.50346
  CHANNELS 6 Xposition Yposition Zposition Zrotation Xrotation Yrotation
  JOINT Spine
  {
    OFFSET 0 8.597 -4.6522
    CHANNELS 3 Zrotation Xrotation Yrotation
    JOINT Spine1
    {
      OFFSET 0 7.8454 0.4098
      CHANNELS 3 Zrotation Xrotation Yrotation
      JOINT Spine2
      {
        OFFSET 0 9.7078 -2.1609
        CHANNELS 3 Zrotation Xrotation Yrotation
        JOINT Neck
        {
          OFFSET 0 21.8761 -0.4549
          CHANNELS 3 Zrotation Xrotation Yrotation
          JOINT Head
          {
            OFFSET 0 12.3537 3.3602
            CHANNELS 3 Zrotation Xrotation Yrotation
            End Site
            {
              OFFSET 0.0001 18.9506 0.5657
            }
          }
        }
        JOINT LeftShoulder
        {
          OFFSET 2.2086 21.1115 7.2329
          CHANNELS 3 Zrotation Xrotation Yrotation
          JOINT LeftArm
          {
            OFFSET 13.1193 3.0282 -4.8998
            CHANNELS 3 Zrotation Xrotation Yrotation
            JOINT LeftForeArm
            {
              OFFSET 27.4081 -0.0973053 -0.2375
              CHANNELS 3 Zrotation Xrotation Yrotation
              JOINT LeftHand
              {
                OFFSET 22.8641 0.0662994 -0.1369
                CHANNELS 3 Zrotation Xrotation Yrotation
                JOINT LeftHandIndex1
                {
                  OFFSET 8.8614 0.775009 2.4612
                  CHANNELS 3 Zrotation Xrotation Yrotation
                  JOINT LeftHandIndex2
                  {
                    OFFSET 3.3146 -0.808304 0.5841
                    CHANNELS 3 Zrotation Xrotation Yrotation
                    JOINT LeftHandIndex3
                    {
                      OFFSET 2.2628 -0.552002 0.3989
                      CHANNELS 3 Zrotation Xrotation Yrotation
                      End Site
                      {
                        OFFSET 1.6102 -0.4807 0.2612
                      }
                    }
                  }
                }
                JOINT LeftHandMiddle1
                {
                  OFFSET 8.9937 0.895004 0.2143
                  CHANNELS 3 Zrotation Xrotation Yrotation
                  JOINT LeftHandMiddle2
                  {
                    OFFSET 4.0984 0.0113983 -0.0242
                    CHANNELS 3 Zrotation Xrotation Yrotation
                    JOINT LeftHandMiddle3
                    {
                      OFFSET 2.2716 0.00689697 -0.0138001
                      CHANNELS 3 Zrotation Xrotation Yrotation
                      End Site
                      {
                        OFFSET 2.0404 -0.1441 0.0027
                      }
                    }
                  }
                }
                JOINT LeftHandRing1
                {
                  OFFSET 8.5234 0.597198 -2.0164
                  CHANNELS 3 Zrotation Xrotation Yrotation
                  JOINT LeftHandRing2
                  {
                    OFFSET 3.7188 -0.188293 -0.2328
                    CHANNELS 3 Zrotation Xrotation Yrotation
                    JOINT LeftHandRing3
                    {
                      OFFSET 2.1191 -0.106598 -0.1332
                      CHANNELS 3 Zrotation Xrotation Yrotation
                      End Site
                      {
                        OFFSET 1.8737 -0.2304 -0.0886
                      }
                    }
                  }
                }
                JOINT LeftHandPinky1
                {
                  OFFSET 7.9094 -0.601089 -3.4825
                  CHANNELS 3 Zrotation Xrotation Yrotation
                  JOINT LeftHandPinky2
                  {
                    OFFSET 2.2874 -0.477005 -0.6314
                    CHANNELS 3 Zrotation Xrotation Yrotation
                    JOINT LeftHandPinky3
                    {
                      OFFSET 1.6774 -0.349396 -0.4633
                      CHANNELS 3 Zrotation Xrotation Yrotation
                      End Site
                      {
                        OFFSET 1.4888 -0.4091 -0.3416
                      }
                    }
                  }
                }
                JOINT LeftHandThumb1
                {
                  OFFSET 1.833 -1.3875 1.3896
                  CHANNELS 3 Zrotation Xrotation Yrotation
                  JOINT LeftHandThumb2
                  {
                    OFFSET 3.4129 -1.121 2.5732
                    CHANNELS 3 Zrotation Xrotation Yrotation
                    JOINT LeftHandThumb3
                    {
                      OFFSET 2.2474 -0.804199 1.6192
                      CHANNELS 3 Zrotation Xrotation Yrotation
                      End Site
                      {
                        OFFSET 1.6527 -0.5689 1.1317
                      }
                    }
                  }
                }
              }
            }
          }
        }
        JOINT RightShoulder
        {
          OFFSET -2.2086 21.1115 7.2329
          CHANNELS 3 Zrotation Xrotation Yrotation
          JOINT RightArm
          {
            OFFSET -13.1216 3.0287 -4.9007
            CHANNELS 3 Zrotation Xrotation Yrotation
            JOINT RightForeArm
            {
              OFFSET -27.4081 -0.0973053 -0.2375
              CHANNELS 3 Zrotation Xrotation Yrotation
              JOINT RightHand
              {
                OFFSET -22.8641 0.0664063 -0.1369
                CHANNELS 3 Zrotation Xrotation Yrotation
                JOINT RightHandIndex1
                {
                  OFFSET -8.8614 0.774994 2.4612
                  CHANNELS 3 Zrotation Xrotation Yrotation
                  JOINT RightHandIndex2
                  {
                    OFFSET -3.3146 -0.808304 0.5841
                    CHANNELS 3 Zrotation Xrotation Yrotation
                    JOINT RightHandIndex3
                    {
                      OFFSET -2.2628 -0.552002 0.3989
                      CHANNELS 3 Zrotation Xrotation Yrotation
                      End Site
                      {
                        OFFSET -1.6102 -0.4807 0.2612
                      }
                    }
                  }
                }
                JOINT RightHandMiddle1
                {
                  OFFSET -8.9937 0.894989 0.2143
                  CHANNELS 3 Zrotation Xrotation Yrotation
                  JOINT RightHandMiddle2
                  {
                    OFFSET -4.0984 0.0113983 -0.0242
                    CHANNELS 3 Zrotation Xrotation Yrotation
                    JOINT RightHandMiddle3
                    {
                      OFFSET -2.2716 0.00691223 -0.0138001
                      CHANNELS 3 Zrotation Xrotation Yrotation
                      End Site
                      {
                        OFFSET -2.0404 -0.1441 0.0027
                      }
                    }
                  }
                }
                JOINT RightHandRing1
                {
                  OFFSET -8.5234 0.597198 -2.0164
                  CHANNELS 3 Zrotation Xrotation Yrotation
                  JOINT RightHandRing2
                  {
                    OFFSET -3.7188 -0.188309 -0.2328
                    CHANNELS 3 Zrotation Xrotation Yrotation
                    JOINT RightHandRing3
                    {
                      OFFSET -2.1191 -0.106598 -0.1332
                      CHANNELS 3 Zrotation Xrotation Yrotation
                      End Site
                      {
                        OFFSET -1.8737 -0.2304 -0.0886
                      }
                    }
                  }
                }
                JOINT RightHandPinky1
                {
                  OFFSET -7.9094 -0.601105 -3.4825
                  CHANNELS 3 Zrotation Xrotation Yrotation
                  JOINT RightHandPinky2
                  {
                    OFFSET -2.2874 -0.477005 -0.6314
                    CHANNELS 3 Zrotation Xrotation Yrotation
                    JOINT RightHandPinky3
                    {
                      OFFSET -1.6774 -0.349396 -0.4633
                      CHANNELS 3 Zrotation Xrotation Yrotation
                      End Site
                      {
                        OFFSET -1.4888 -0.4091 -0.3416
                      }
                    }
                  }
                }
                JOINT RightHandThumb1
                {
                  OFFSET -1.833 -1.38751 1.3896
                  CHANNELS 3 Zrotation Xrotation Yrotation
                  JOINT RightHandThumb2
                  {
                    OFFSET -3.41299 -1.12099 2.5732
                    CHANNELS 3 Zrotation Xrotation Yrotation
                    JOINT RightHandThumb3
                    {
                      OFFSET -2.24741 -0.804108 1.6192
                      CHANNELS 3 Zrotation Xrotation Yrotation
                      End Site
                      {
                        OFFSET -1.6527 -0.5689 1.1317
                      }
                    }
                  }
                }
              }
            }
          }
        }
      }
    }
  }
  JOINT RightUpLeg
  {
    OFFSET -9.1966 3.8861 -0.7581
    CHANNELS 3 Zrotation Xrotation Yrotation
    JOINT RightLeg
    {
      OFFSET -0.7359 -41.0265 0
      CHANNELS 3 Zrotation Xrotation Yrotation
      JOINT RightFoot
      {
        OFFSET 0 -40.2855 0
        CHANNELS 3 Zrotation Xrotation Yrotation
        JOINT RightToeBase
        {
          OFFSET 0 -5.6122 11.7359
          CHANNELS 3 Zrotation Xrotation Yrotation
          End Site
          {
            OFFSET 0 0 7.8731
          }
        }
      }
    }
  }
  JOINT LeftUpLeg
  {
    OFFSET 9.1965 3.8864 -0.7581
    CHANNELS 3 Zrotation Xrotation Yrotation
    JOINT LeftLeg
    {
      OFFSET 0.7359 -41.0268 0
      CHANNELS 3 Zrotation Xrotation Yrotation
      JOINT LeftFoot
      {
        OFFSET 0 -40.2855 0
        CHANNELS 3 Zrotation Xrotation Yrotation
        JOINT LeftToeBase
        {
          OFFSET 0 -5.6122 11.7359
          CHANNELS 3 Zrotation Xrotation Yrotation
          End Site
          {
            OFFSET 0 0 7.8731
          }
        }
      }
    }
  }
}
MOTION
Frames:	4
Frame Time:	0.0333333
5.84602e-005 68.8428 3.50346 0 0 -0 0 0 -0 0 0 -0 0 0 -0 0 0 -0 0 0 -0 0 0 -0 0 0 -0 0 0 -0 0 0 -0 0 0 -0 0 0 -0 0 0 -0 0 0 -0 -0.0146107 -8.87603e-005 -2.63497e-007 2.99804e-018 -2.42657e-020 -1.42182e-022 0 0 -0 -0.0187562 -0.001176 5.858e-005 5.06224e-018 3.88251e-019 1.21329e-020 0 0 -0 -0.012269 -0.00324817 0.000675346 -1.74678e-018 3.88251e-019 -0 0 0 -0 0 0 -0 0 0 -0 0 0 -0 0 0 -0 0 0 -0 0 0 -0 0 0 -0 0 0 -0 0 0 -0 0 0 -0 0.0149955 -9.10982e-005 2.64101e-007 -9.69331e-018 1.21329e-020 -4.7394e-023 0 0 -0 0.0189956 -0.00119102 -5.96516e-005 -5.41541e-019 0 2.42657e-020 0 0 -0 0.0122698 -0.00324857 -0.000673756 -2.00796e-019 0 -1.94126e-019 0 0 -0 0 0 -0 0 0 -0 3.39842 1.33031 -0.0637918 -5.65207e-008 0.834868 -0.000436188 -3.39935 -2.16518 -0.0642563 -8.89002e-024 -1.18485e-023 -1.48106e-024 -3.39844 1.35642 0.0640283 -3.18788e-007 0.782166 -0.000588827 3.39931 -2.13858 0.0634662 1.1399e-023 0 -0 
1.33589 -11.9771 58.1317 117.661 -75.3762 -63.373 0.174186 -6.04494 0.0600546 0.357805 -12.0897 0.139884 0.357806 -12.0897 0.139883 -1.40997e-005 -10.1227 4.8735e-007 -1.1641e-006 23.3478 1.21734e-006 7.43837 -40.2414 16.5735 -59.2272 1.51246 -42.3814 52.4523 -23.3957 -113.81 16.0627 -64.54 50.0783 3.97569e-016 9.19379e-016 -7.95139e-016 0 8.94531e-016 -0 1.98785e-015 9.19379e-016 -0 3.97569e-016 9.19379e-016 -7.95139e-016 -0.0146168 -9.01713e-005 1.12824e-005 3.97569e-016 -1.71452e-015 -0 3.97569e-016 9.19379e-016 -7.95139e-016 -0.0187188 -0.0011758 6.11016e-005 7.95139e-016 -1.05604e-014 -0 3.97569e-016 9.19379e-016 -7.95139e-016 -0.0123051 -0.00325138 0.000672853 7.95139e-016 -2.90723e-015 -7.95139e-016 3.97569e-016 9.19379e-016 -7.95139e-016 0 8.94531e-016 -0 1.98785e-015 9.19379e-016 -0 -15.4903 -3.52115 -46.122 58.7253 9.67126 49.766 -5.56024 22.2238 138.247 -44.8053 -15.9451 -32.4666 -6.36111e-015 2.78299e-015 -1.59028e-015 -3.18055e-015 7.95139e-016 -0 3.18055e-015 1.98785e-015 -0 -6.36111e-015 2.78299e-015 -1.59028e-015 0.0149883 -8.65071e-005 -2.88896e-006 3.18055e-015 1.31198e-014 -7.95139e-016 -6.36111e-015 2.78299e-015 -1.59028e-015 0.0189954 -0.00118969 -5.38806e-005 6.21509e-007 2.97213e-007 6.12404e-007 -6.36111e-015 2.78299e-015 -1.59028e-015 0.01228 -0.00325103 -0.00067428 3.18055e-015 7.15625e-015 -4.77083e-015 -6.36111e-015 2.78299e-015 -1.59028e-015 -3.18055e-015 7.95139e-016 -0 3.18055e-015 1.98785e-015 -0 -2.27233 -1.00416 -5.93141 -170.63 60.568 165.714 -6.75801 19.5978 0.175035 -6.2072e-007 1.83714e-007 -7.87058e-007 5.23474 -2.24571 3.12489 53.9312 85.451 -52.5992 11.9262 45.4948 0.703151 -2.25462e-007 3.18583e-006 5.70512e-008 
-0.253651 -6.95945 54.3189 -90.3963 -89.7304 89.3514 0.164829 -5.40998 0.0497761 0.33667 -10.8196 0.116048 0.33667 -10.8197 0.116048 -5.09295e-006 -5.94421 -2.98144e-007 9.77511e-008 20.2049 -1.14865e-007 6.81541 -38.5995 15.3726 -55.2161 1.47183 -39.4572 50.8164 -16.6088 -108.16 9.396 -62.1333 41.5919 -4.77083e-015 -8.74653e-015 -3.97569e-015 -1.8742e-006 -2.31335e-006 9.27942e-007 1.59028e-015 -1.59028e-015 -1.59028e-015 -4.77083e-015 -8.74653e-015 -3.97569e-015 -0.0146133 -8.6666e-005 3.89697e-006 -3.18055e-015 1.31198e-014 -0 -4.77083e-015 -8.74653e-015 -3.97569e-015 -0.01875 -0.00117646 5.78022e-005 -1.59028e-015 -1.07344e-014 -2.38542e-015 -4.77083e-015 -8.74653e-015 -3.97569e-015 -0.0122496 -0.00324789 0.000678679 4.87113e-007 -3.23701e-006 3.33386e-006 -4.77083e-015 -8.74653e-015 -3.97569e-015 -1.8742e-006 -2.31335e-006 9.27942e-007 1.59028e-015 -1.59028e-015 -1.59028e-015 -14.665 -4.66607 -43.212 55.232 9.60662 46.2804 -2.07393 17.5683 128.957 -41.4638 -15.3336 -30.4488 -0 -6.55989e-015 -0 -7.95139e-016 -4.17448e-015 -0 1.48969e-031 1.78906e-015 -4.77083e-015 -0 -6.55989e-015 -0 0.0150172 -9.5408e-005 2.48665e-006 -1.59028e-015 -2.98177e-015 1.59028e-015 -0 -6.55989e-015 -0 0.0189919 -0.00118838 -5.60228e-005 4.41391e-032 7.95139e-016 -3.18055e-015 -0 -6.55989e-015 -0 0.0122925 -0.00325254 -0.000684496 7.95139e-016 -1.19271e-015 1.59028e-015 -0 -6.55989e-015 -0 -7.95139e-016 -4.17448e-015 -0 1.48969e-031 1.78906e-015 -4.77083e-015 -1.89779 -0.972482 -5.11117 -167.562 68.4485 163.597 -6.59506 18.0524 0.334589 -5.42562e-007 -3.54647e-008 2.62298e-007 4.65256 -1.98763 2.83364 20.8845 80.8371 -19.8744 11.4564 42.0988 0.532862 -2.20648e-006 1.91166e-007 -1.51631e-006 
-0.253651 -6.95945 54.3189 -90.3963 -89.7304 89.3514 0.165443 -5.20501 0.0490085 0.337481 -10.4099 0.113892 0.337481 -10.4099 0.113892 6.97985e-006 -2.66659 -1.23624e-006 3.63752e-007 18.7693 -1.03999e-007 7.60789 -39.4914 15.885 -55.2161 1.47182 -39.4572 50.8164 -16.6088 -108.16 10.4444 -62.3553 42.3717 -1.59028e-015 -5.76476e-015 -2.38542e-015 1.59028e-015 -3.18055e-015 -2.38542e-015 -1.59028e-015 2.5842e-015 -7.95139e-016 -1.59028e-015 -5.76476e-015 -2.38542e-015 -0.0146252 -8.81701e-005 -5.83065e-006 4.77083e-015 2.78299e-015 -0 -1.59028e-015 -5.76476e-015 -2.38542e-015 -0.0187667 -0.00117401 4.64044e-005 4.77083e-015 -2.5842e-015 2.38542e-015 -1.59028e-015 -5.76476e-015 -2.38542e-015 -0.0122611 -0.00324243 0.000671779 4.77083e-015 7.55382e-015 -0 -1.59028e-015 -5.76476e-015 -2.38542e-015 1.59028e-015 -3.18055e-015 -2.38542e-015 -1.59028e-015 2.5842e-015 -7.95139e-016 -15.0737 -5.79201 -43.4809 55.232 9.60662 46.2804 -2.07392 17.5684 128.957 -41.7917 -15.4684 -30.791 7.95139e-016 7.95139e-015 -0 0 5.36719e-015 -0 -7.95139e-016 2.38542e-015 1.59028e-015 7.95139e-016 7.95139e-015 -0 0.0149906 -8.97411e-005 -1.93107e-006 -1.59028e-015 -3.57812e-015 1.59028e-015 7.95139e-016 7.95139e-015 -0 0.0189875 -0.00119127 -5.82518e-005 -7.95139e-016 5.76476e-015 -0 7.95139e-016 7.95139e-015 -0 0.0122753 -0.00324894 -0.000675666 0 4.96962e-015 -0 7.95139e-016 7.95139e-015 -0 0 5.36719e-015 -0 -7.95139e-016 2.38542e-015 1.59028e-015 -1.89779 -0.972554 -5.11116 -167.562 68.4484 163.597 -6.59506 18.0524 0.334589 -1.06716e-006 -2.40349e-008 -8.22826e-007 4.65256 -1.98763 2.83364 20.8846 80.8371 -19.8745 11.4564 42.0988 0.532859 -1.11761e-007 -3.32264e-006 -5.40224e-007 
